PathFileType	4	(X/Y/Z)	 2.6Hz3min.trc
DataRate	CameraRate	NumFrames	NumMarkers	Units	OrigDataRate	OrigDataStartFrame	OrigNumFrames
200	200	9	35	m	200	501	1000
Frame#	Time	C7			LSH			RSH			MAN			RASI			LASI			HIPR			HIPL			RPSI			LPSI			COX			RTHI1			RTHI2			RTHI3			RTHI4			RSHA1			RSHA2			RSHA3			RSHA4			RHEEL			RMET5			RMET1			RTOE			LTHI1			LTHI2			LTHI3			LTHI4			LSHA1			LSHA2			LSHA3			LSHA4			LHEEL			LMET5			LMET1			LTOE			
		X1	Y1	Z1	X2	Y2	Z2	X3	Y3	Z3	X4	Y4	Z4	X5	Y5	Z5	X6	Y6	Z6	X7	Y7	Z7	X8	Y8	Z8	X9	Y9	Z9	X10	Y10	Z10	X11	Y11	Z11	X12	Y12	Z12	X13	Y13	Z13	X14	Y14	Z14	X15	Y15	Z15	X16	Y16	Z16	X17	Y17	Z17	X18	Y18	Z18	X19	Y19	Z19	X20	Y20	Z20	X21	Y21	Z21	X22	Y22	Z22	X23	Y23	Z23	X24	Y24	Z24	X25	Y25	Z25	X26	Y26	Z26	X27	Y27	Z27	X28	Y28	Z28	X29	Y29	Z29	X30	Y30	Z30	X31	Y31	Z31	X32	Y32	Z32	X33	Y33	Z33	X34	Y34	Z34	X35	Y35	Z35	
501	2.5050	-0.253521	1.335194	-0.528412	-0.207948	1.308220	-0.697459	-0.184000	1.295665	-0.353422	-0.143191	1.276014	-0.533227	-0.124351	0.879361	-0.444981	-0.112168	0.890363	-0.632825	-0.184974	0.932589	-0.402123	-0.162181	0.941088	-0.672206	-0.273886	0.921123	-0.480913	-0.265438	0.922993	-0.597535	-0.272965	0.930521	-0.539719	-0.228808	0.666385	-0.390441	-0.206280	0.611359	-0.383318	-0.148525	0.632797	-0.363673	-0.163460	0.692470	-0.367227	-0.261540	0.275049	-0.365939	-0.280695	0.238760	-0.370177	-0.231883	0.211416	-0.358930	-0.207658	0.246226	-0.358701	-0.363674	0.076496	-0.406419	-0.213428	0.028516	-0.334599	-0.178125	0.032034	-0.415739	-0.156032	0.027764	-0.402722	-0.182819	0.685161	-0.722406	-0.168272	0.625367	-0.725606	-0.105433	0.633632	-0.710402	-0.112566	0.692798	-0.705914	-0.269815	0.264547	-0.760477	-0.286025	0.223743	-0.759782	-0.237927	0.202596	-0.746461	-0.215778	0.236227	-0.745931	-0.382788	0.093996	-0.721424	-0.229373	0.027301	-0.777486	-0.205193	0.036578	-0.700284	-0.177211	0.027562	-0.707100	
502	2.5100	-0.253393	1.330994	-0.528198	-0.208505	1.303789	-0.697565	-0.183248	1.290998	-0.353040	-0.142756	1.271446	-0.533261	-0.124604	0.875015	-0.444600	-0.112228	0.885798	-0.633099	-0.185872	0.927172	-0.401551	-0.162548	0.935951	-0.672696	-0.274552	0.916334	-0.481117	-0.266014	0.918104	-0.597947	-0.273421	0.925904	-0.539995	-0.229092	0.662239	-0.391405	-0.206415	0.607238	-0.384290	-0.149013	0.628918	-0.363660	-0.164188	0.688528	-0.367072	-0.260662	0.271758	-0.367340	-0.280260	0.235847	-0.371002	-0.231598	0.208164	-0.359941	-0.207175	0.242835	-0.359676	-0.364428	0.073890	-0.407886	-0.213825	0.028491	-0.334854	-0.178012	0.031926	-0.416079	-0.155924	0.027729	-0.402803	-0.182762	0.681147	-0.722319	-0.168211	0.621356	-0.725490	-0.105348	0.629642	-0.710387	-0.112483	0.688816	-0.705943	-0.270144	0.260894	-0.759908	-0.286482	0.220196	-0.759134	-0.238496	0.198933	-0.745578	-0.216237	0.232474	-0.745094	-0.384092	0.090967	-0.720548	-0.229675	0.027186	-0.777487	-0.205530	0.036301	-0.699963	-0.177381	0.027472	-0.707104	
503	2.5150	-0.253308	1.327170	-0.527973	-0.209158	1.299717	-0.697660	-0.182527	1.286712	-0.352695	-0.142398	1.267220	-0.533310	-0.124860	0.871034	-0.444199	-0.112287	0.881626	-0.633288	-0.186765	0.922127	-0.401006	-0.162837	0.931249	-0.673147	-0.275081	0.912107	-0.481385	-0.266461	0.913838	-0.598357	-0.273761	0.921970	-0.540300	-0.229413	0.658559	-0.392344	-0.206631	0.603554	-0.385249	-0.149546	0.625439	-0.363706	-0.164905	0.684985	-0.367004	-0.259652	0.268693	-0.368960	-0.279759	0.233273	-0.371740	-0.231246	0.205251	-0.360934	-0.206653	0.239807	-0.360600	-0.365062	0.071538	-0.409364	-0.214189	0.028503	-0.335145	-0.177878	0.031839	-0.416395	-0.155803	0.027699	-0.402877	-0.182737	0.677623	-0.722163	-0.168182	0.617838	-0.725321	-0.105289	0.626137	-0.710331	-0.112426	0.685322	-0.705918	-0.270495	0.257661	-0.759136	-0.286957	0.217023	-0.758288	-0.239050	0.195655	-0.744619	-0.216678	0.229139	-0.744197	-0.385222	0.088203	-0.719420	-0.229994	0.027116	-0.777379	-0.205789	0.036047	-0.699632	-0.177499	0.027388	-0.707119	
504	2.5200	-0.253267	1.323750	-0.527749	-0.209885	1.296046	-0.697728	-0.181819	1.282878	-0.352408	-0.142123	1.263380	-0.533371	-0.125109	0.867473	-0.443800	-0.112331	0.877930	-0.633365	-0.187219	0.918050	-0.400762	-0.163017	0.927125	-0.673550	-0.275456	0.908526	-0.481692	-0.266758	0.910291	-0.598734	-0.273991	0.918721	-0.540605	-0.229763	0.655319	-0.393239	-0.206866	0.600303	-0.386195	-0.150094	0.622375	-0.363797	-0.165595	0.681849	-0.367013	-0.258774	0.266041	-0.370358	-0.279236	0.231081	-0.372384	-0.230906	0.202747	-0.361840	-0.206145	0.237177	-0.361435	-0.365574	0.069467	-0.410777	-0.214514	0.028541	-0.335443	-0.177743	0.031764	-0.416677	-0.155683	0.027674	-0.402940	-0.182723	0.674567	-0.721962	-0.168150	0.614790	-0.725104	-0.105234	0.623113	-0.710224	-0.112380	0.682306	-0.705840	-0.270824	0.254931	-0.758172	-0.287422	0.214300	-0.757263	-0.239552	0.192839	-0.743618	-0.217062	0.226285	-0.743271	-0.386159	0.085739	-0.718083	-0.230313	0.027081	-0.777194	-0.205960	0.035813	-0.699293	-0.177549	0.027306	-0.707134	
505	2.5250	-0.253274	1.320760	-0.527544	-0.210652	1.292819	-0.697760	-0.181136	1.279536	-0.352185	-0.141923	1.259981	-0.533445	-0.125333	0.864385	-0.443429	-0.112344	0.874782	-0.633314	-0.188735	0.914858	-0.400350	-0.163065	0.923709	-0.673882	-0.275673	0.905609	-0.482018	-0.266913	0.907493	-0.599049	-0.274174	0.916234	-0.540918	-0.230122	0.652515	-0.394063	-0.207088	0.597494	-0.387076	-0.150635	0.619731	-0.363923	-0.166238	0.679113	-0.367088	-0.258061	0.263862	-0.371518	-0.278730	0.229283	-0.372935	-0.230616	0.200670	-0.362630	-0.205696	0.234996	-0.362149	-0.365973	0.067723	-0.412055	-0.214794	0.028596	-0.335726	-0.177615	0.031699	-0.416921	-0.155573	0.027654	-0.402991	-0.182700	0.671954	-0.721747	-0.168095	0.612184	-0.724848	-0.105163	0.620546	-0.710067	-0.112333	0.679754	-0.705731	-0.271097	0.252723	-0.757043	-0.287836	0.212072	-0.756088	-0.239970	0.190525	-0.742608	-0.217372	0.223908	-0.742333	-0.386894	0.083617	-0.716603	-0.230622	0.027077	-0.776952	-0.206041	0.035594	-0.698949	-0.177533	0.027228	-0.707153	
506	2.5300	-0.253329	1.318227	-0.527363	-0.211439	1.290063	-0.697762	-0.180489	1.276706	-0.352022	-0.141800	1.257076	-0.533529	-0.125516	0.861824	-0.443111	-0.112312	0.872245	-0.633149	-0.189220	0.912056	-0.400455	-0.162969	0.921100	-0.674118	-0.275794	0.903366	-0.482314	-0.266950	0.905407	-0.599291	-0.274228	0.914273	-0.541134	-0.230475	0.650157	-0.394806	-0.207274	0.595135	-0.387896	-0.151136	0.617522	-0.364084	-0.166824	0.676828	-0.367195	-0.257529	0.262159	-0.372435	-0.278327	0.227891	-0.373517	-0.230388	0.199052	-0.363284	-0.205331	0.233271	-0.362726	-0.366264	0.066336	-0.413108	-0.215023	0.028655	-0.335972	-0.177507	0.031643	-0.417125	-0.155479	0.027639	-0.403030	-0.182658	0.669766	-0.721534	-0.168012	0.610010	-0.724564	-0.105069	0.618433	-0.709871	-0.112272	0.677654	-0.705615	-0.271291	0.251022	-0.755795	-0.288165	0.210333	-0.754814	-0.240292	0.188684	-0.741597	-0.217587	0.222007	-0.741385	-0.387431	0.081874	-0.715043	-0.230908	0.027098	-0.776660	-0.206031	0.035396	-0.698609	-0.177454	0.027156	-0.707173	
507	2.5350	-0.253425	1.316186	-0.527203	-0.212230	1.287802	-0.697744	-0.179871	1.274409	-0.351912	-0.141784	1.254703	-0.533613	-0.125649	0.859822	-0.442863	-0.112234	0.870349	-0.632907	-0.189739	0.909790	-0.400245	-0.162724	0.919342	-0.674244	-0.275838	0.901751	-0.482573	-0.266898	0.903980	-0.599477	-0.274248	0.912827	-0.541278	-0.230798	0.648276	-0.395442	-0.207403	0.593267	-0.388632	-0.151553	0.615775	-0.364267	-0.167329	0.675015	-0.367324	-0.257163	0.261006	-0.373025	-0.278000	0.226904	-0.374007	-0.230203	0.197896	-0.363794	-0.205049	0.232013	-0.363154	-0.366430	0.065309	-0.413858	-0.215192	0.028710	-0.336167	-0.177422	0.031595	-0.417287	-0.155405	0.027627	-0.403060	-0.182587	0.668017	-0.721334	-0.167899	0.608271	-0.724253	-0.104946	0.616771	-0.709645	-0.112189	0.676001	-0.705501	-0.271403	0.249772	-0.754486	-0.288404	0.209040	-0.753505	-0.240510	0.187300	-0.740589	-0.217702	0.220574	-0.740438	-0.387775	0.080540	-0.713490	-0.231161	0.027137	-0.776325	-0.205947	0.035211	-0.698273	-0.177326	0.027088	-0.707183	
508	2.5400	-0.253554	1.314670	-0.527057	-0.213021	1.286055	-0.697721	-0.179279	1.272656	-0.351849	-0.141871	1.252951	-0.533691	-0.125710	0.858409	-0.442691	-0.112114	0.869096	-0.632638	-0.190068	0.908368	-0.399821	-0.162347	0.918416	-0.674264	-0.275821	0.900714	-0.482789	-0.266790	0.903118	-0.599616	-0.274242	0.911850	-0.541373	-0.231029	0.646903	-0.396006	-0.207454	0.591910	-0.389277	-0.151858	0.614516	-0.364459	-0.167712	0.673699	-0.367474	-0.256942	0.260387	-0.373266	-0.277764	0.226292	-0.374470	-0.230056	0.197166	-0.364152	-0.204829	0.231207	-0.363455	-0.366478	0.064635	-0.414272	-0.215297	0.028755	-0.336309	-0.177360	0.031553	-0.417409	-0.155347	0.027618	-0.403085	-0.182480	0.666732	-0.721143	-0.167755	0.606987	-0.723919	-0.104792	0.615576	-0.709389	-0.112072	0.674809	-0.705390	-0.271421	0.248962	-0.753203	-0.288530	0.208199	-0.752227	-0.240611	0.186371	-0.739608	-0.217721	0.219596	-0.739503	-0.387937	0.079640	-0.712023	-0.231375	0.027188	-0.775967	-0.205805	0.035046	-0.697954	-0.177165	0.027029	-0.707181	
509	2.5450	-0.253704	1.313712	-0.526916	-0.213812	1.284844	-0.697703	-0.178709	1.271446	-0.351773	-0.142007	1.251874	-0.533773	-0.125700	0.857588	-0.442599	-0.111960	0.868467	-0.632394	-0.190059	0.907580	-0.399893	-0.161886	0.918232	-0.674182	-0.275754	0.900197	-0.482966	-0.266635	0.902764	-0.599729	-0.274211	0.911329	-0.541449	-0.231143	0.646056	-0.396473	-0.207422	0.591087	-0.389807	-0.152031	0.613757	-0.364659	-0.167954	0.672896	-0.367634	-0.256744	0.260205	-0.373370	-0.277601	0.226049	-0.374886	-0.229911	0.196833	-0.364382	-0.204644	0.230834	-0.363651	-0.366423	0.064327	-0.414377	-0.215335	0.028789	-0.336401	-0.177314	0.031516	-0.417497	-0.155300	0.027610	-0.403110	-0.182328	0.665932	-0.720951	-0.167573	0.606191	-0.723569	-0.104602	0.614855	-0.709102	-0.111913	0.674096	-0.705266	-0.271339	0.248566	-0.752020	-0.288530	0.207791	-0.751050	-0.240596	0.185885	-0.738684	-0.217644	0.219064	-0.738609	-0.387935	0.079178	-0.710714	-0.231544	0.027249	-0.775603	-0.205622	0.034906	-0.697662	-0.176989	0.026980	-0.707168	
